<?xml version="1.0" standalone="no"?>
<!DOCTYPE svg PUBLIC "-//W3C//DTD SVG 20010904//EN"
 "http://www.w3.org/TR/2001/REC-SVG-20010904/DTD/svg10.dtd">
<svg version="1.0" xmlns="http://www.w3.org/2000/svg"
 width="93.000000pt" height="93.000000pt" viewBox="0 0 93.000000 93.000000"
 preserveAspectRatio="xMidYMid meet">
<metadata>
Created by potrace 1.11, written by Peter Selinger 2001-2013
</metadata>
<g transform="translate(0.000000,93.000000) scale(0.100000,-0.100000)"
fill="#000000" stroke="none">
<path d="M544 890 c-32 -13 -64 -59 -64 -92 0 -44 48 -88 95 -88 45 0 95 45
95 85 0 41 -26 82 -61 94 -37 13 -37 13 -65 1z"/>
<path d="M637 723 c-4 -3 -1 -16 7 -29 14 -20 13 -24 -4 -39 -41 -37 -30 -118
19 -145 81 -43 174 50 131 131 -14 26 -67 52 -96 46 -13 -2 -23 -1 -22 2 2 11
-14 41 -21 41 -4 0 -11 -3 -14 -7z"/>
<path d="M245 683 c-138 -72 -154 -250 -32 -347 32 -26 49 -31 105 -34 88 -5
144 23 187 93 60 97 26 229 -74 282 -53 28 -140 31 -186 6z"/>
<path d="M700 470 c0 -11 7 -20 15 -20 8 0 15 9 15 20 0 11 -7 20 -15 20 -8 0
-15 -9 -15 -20z"/>
<path d="M637 429 c-9 -5 -24 -24 -33 -40 -40 -78 47 -165 125 -125 37 20 51
44 51 89 0 67 -83 111 -143 76z"/>
<path d="M601 256 c-9 -10 -8 -16 3 -25 12 -10 17 -8 25 7 16 30 -6 44 -28 18z"/>
<path d="M479 245 c-55 -30 -62 -116 -12 -155 87 -68 203 51 131 135 -28 32
-83 41 -119 20z"/>
<path d="M219 181 c-35 -36 -39 -86 -9 -124 44 -55 137 -40 161 26 10 28 16
33 35 29 18 -3 24 0 24 13 0 13 -6 16 -26 12 -20 -3 -27 1 -34 18 -23 60 -103
73 -151 26z"/>
</g>
</svg>
